# xmcd CD database file
#
# Track frame offsets:
#	150
#	17060
#	34202
#	59757
#	78605
#	99882
#	117600
#	141757
#	160585
#	182840
#
# Disc length: 2519 seconds
#
# Revision: 8
# Processed by: cddbd v1.5.2PL0 Copyright (c) Steve Scherf et al.
# Submitted via: CDex 1.70beta3
#
DISCID=8509d50a
DTITLE=B'z - OFF THE LOCK
DYEAR=1989
DGENRE=J-Rock
TTITLE0=君の中で踊りたい
TTITLE1=HURRY UP!
TTITLE2=NEVER LET YOU GO
TTITLE3=SAFETY LOVE
TTITLE4=GUITER KIDS RHAPSODY
TTITLE5=夜にふられても
TTITLE6=LOVING ALL NIGHT
TTITLE7=OH! GIRL
TTITLE8=ROSY
TTITLE9=OFF THE LOCK
EXTD=YEAR: 1989
EXTT0=
EXTT1=
EXTT2=
EXTT3=
EXTT4=
EXTT5=
EXTT6=
EXTT7=
EXTT8=
EXTT9=
PLAYORDER=
